<?xml version="1.0" encoding="utf-8"?>
<!-- Generator: Adobe Illustrator 26.3.1, SVG Export Plug-In . SVG Version: 6.00 Build 0)  -->
<svg version="1.1" id="Layer_1" xmlns="http://www.w3.org/2000/svg" xmlns:xlink="http://www.w3.org/1999/xlink" x="0px" y="0px"
	 viewBox="0 0 431 262.4" style="enable-background:new 0 0 431 262.4;" xml:space="preserve">
<style type="text/css">
	.st0{display:none;}
	.st1{display:inline;}
	.st2{fill:#209FA5;}
	.st3{fill:#6EC9CE;}
	.st4{fill:#3CC6C6;}
	.st5{fill:#29B3C1;}
	.st6{font-family:'NotoSansCJKjp-Regular-90ms-RKSJ-H';}
	.st7{font-size:14px;}
	.st8{display:inline;fill:none;stroke:#1E989E;stroke-width:0.6;stroke-miterlimit:10;}
	.st9{display:inline;fill:#29B3C1;}
	.st10{display:inline;fill:none;stroke:#29B3C1;stroke-width:0.6;stroke-miterlimit:10;}
	.st11{display:inline;fill:none;stroke:#B5B5B5;stroke-miterlimit:10;}
	.st12{display:inline;fill:#6EC9CE;}
	.st13{display:inline;fill:#209FA5;}
	.st14{display:inline;fill:#3CC6C6;}
	.st15{display:inline;fill:#FFFFFF;}
	.st16{font-family:'NotoSansCJKjp-Black-90ms-RKSJ-H';}
	.st17{fill:none;}
	.st18{fill:#D28D29;}
	.st19{fill:#D26E27;}
	.st20{fill:#D23B27;}
	.st21{fill:#D3A52A;}
	.st22{fill:#D1C429;}
	.st23{fill:#D14E27;}
	.st24{fill:#E0E0E0;}
	.st25{fill:#FFFFFF;}
</style>
<g id="Layer_1_00000145759085347623337640000001695256958748805011_" class="st0">
	<g class="st1">
		<path class="st2" d="M166.5,167.8l-43.2,25.3c11.2,17.5,27.2,31.6,46.1,40.4l21-45.4C180.7,183.6,172.4,176.5,166.5,167.8z"/>
		<path class="st3" d="M273.8,136.5c-0.9,31.6-26.9,57-58.7,57c-8.8,0-17.2-2-24.7-5.4l-21,45.4c13.9,6.4,29.4,10.1,45.6,10.1
			c58.9,0,107-47,108.7-105.5L273.8,136.5z"/>
		<path class="st4" d="M156.4,136.8l-50,1.7c0.7,20,6.8,38.7,16.9,54.5l43.2-25.3C160.4,158.9,156.7,148.2,156.4,136.8z"/>
		<path class="st3" d="M215.1,76V26c-37.1,0-69.9,18.7-89.5,47.1l41.2,28.4C177.3,86.1,195,76,215.1,76z"/>
		<path class="st5" d="M156.3,134.8c0-3.4,0.3-6.7,0.9-9.9l-49.3-8.4c-1,6-1.6,12.1-1.6,18.4c0,1.3,0,2.5,0.1,3.8l50-1.7
			C156.3,136.1,156.3,135.4,156.3,134.8z"/>
		<path class="st5" d="M273.8,134.8c0,0.6,0,1.2,0,1.8l50,1.5c0-1.1,0.1-2.2,0.1-3.3C323.8,74.8,275,26,215.1,26v50
			C247.4,76,273.8,102.4,273.8,134.8z"/>
		<path class="st2" d="M166.7,101.5l-41.2-28.4c-8.8,12.7-15,27.4-17.7,43.3l49.3,8.4C158.6,116.3,161.9,108.3,166.7,101.5z"/>
	</g>
	<text transform="matrix(1 0 0 1 335.505 34.6609)" class="st1 st6 st7">Sales</text>
	<text transform="matrix(1 0 0 1 318.5496 239.7728)" class="st1 st6 st7">Ecosystem</text>
	<text transform="matrix(1 0 0 1 52.0581 228.0772)" class="st1 st6 st7">Operation</text>
	<text transform="matrix(1 0 0 1 44.0581 156.0669)" class="st1 st6 st7">Team</text>
	<text transform="matrix(1 0 0 1 43.4391 105.9211)" class="st1 st6 st7">Adviser</text>
	<g class="st1">
		<text transform="matrix(1 0 0 1 42.2564 80.4595)" class="st6 st7">Partner</text>
	</g>
	<text transform="matrix(1 0 0 1 66.8257 34.341)" class="st1 st6 st7">Marketing</text>
	<polyline class="st8" points="267.3,58.9 299.6,31.6 329,31.6 	"/>
	<circle class="st9" cx="328.2" cy="31.1" r="3.6"/>
	<polyline class="st10" points="247,219.6 276.3,236.6 309,236.6 	"/>
	<polyline class="st10" points="179.7,55.6 162.6,33.6 140.3,33.6 	"/>
	<polyline class="st10" points="129.8,90.7 115.7,76.6 98.4,76.6 	"/>
	<polyline class="st8" points="110.4,130.5 96.8,123.1 96.7,106.2 	"/>
	<path class="st11" d="M130.2,132.9"/>
	<polyline class="st10" points="120.3,160.9 106,153.2 88,153.2 	"/>
	<polyline class="st10" points="172.6,209.6 151.7,225.2 128.8,225.2 	"/>
	<circle class="st12" cx="309" cy="236.6" r="3.6"/>
	<circle class="st13" cx="128.8" cy="225.2" r="3.6"/>
	<circle class="st14" cx="88" cy="153.2" r="3.6"/>
	<circle class="st9" cx="96.7" cy="102.6" r="3.6"/>
	<circle class="st13" cx="98.4" cy="76.9" r="3.6"/>
	<circle class="st12" cx="139.8" cy="33.6" r="3.6"/>
	<text transform="matrix(1 0 0 1 257.8922 79.5417)" class="st15 st16 st7">26%</text>
	<text transform="matrix(1 0 0 1 235.3167 211.2337)" class="st15 st16 st7">30%</text>
	<text transform="matrix(1 0 0 1 143.043 202.4416)" class="st15 st16 st7">10%</text>
	<text transform="matrix(1 0 0 1 123.2881 164.2004)" class="st15 st16 st7">10%</text>
	<text transform="matrix(1 0 0 1 117.6999 134.8999)" class="st15 st16 st7">3%</text>
	<text transform="matrix(1 0 0 1 127.3 109.1293)" class="st15 st16 st7">6%</text>
	<text transform="matrix(1 0 0 1 161.2766 71.1975)" class="st15 st16 st7">15%</text>
</g>
<path class="st17" d="M209,140l9.6-7.3c-1.7-2.1-4.1-3.6-6.8-4.2l-2.9,11.5l2.9-11.5c-0.8-0.2-1.6-0.3-2.5-0.3c-0.2,0-0.3,0-0.5,0
	V140v-11.7c-6.3,0.3-11.4,5.5-11.4,11.9c0,1.2,0.2,2.4,0.5,3.5l10.9-3.5l0-0.1l0,0.1L209,140l-0.1,0.1l3.7,11.4
	c5-1.4,8.7-6,8.7-11.4c0,0,0-0.1,0-0.1l-12.2,0.1l12.2-0.1c0-2.8-1-5.3-2.6-7.3L209,140z"/>
<path class="st17" d="M197.9,143.6c1.5,4.9,6,8.4,11.4,8.4c1.1,0,2.2-0.2,3.2-0.4l-3.7-11.4L197.9,143.6z"/>
<path class="st18" d="M221.2,140l86-0.9c-0.2-22.1-7.8-42.4-20.3-58.6l-68.2,52.3C220.2,134.7,221.1,137.2,221.2,140z"/>
<path class="st19" d="M218.5,132.7l68.2-52.3c-13.3-17.2-32.2-29.9-53.9-35.2l-21.1,83.4C214.5,129.1,216.9,130.6,218.5,132.7z"/>
<path class="st20" d="M197.4,140.1c0-6.4,5.1-11.6,11.4-11.9v-86c-53.8,0.3-97.3,44-97.3,97.8c0,10.3,1.6,20.3,4.6,29.6l81.9-26.1
	C197.6,142.5,197.4,141.4,197.4,140.1z"/>
<path class="st21" d="M221.2,140c0,0,0,0.1,0,0.1c0,5.4-3.7,10-8.7,11.4l26.4,81.8c39.6-12.5,68.2-49.6,68.2-93.3c0-0.4,0-0.7,0-1.1
	L221.2,140z"/>
<path class="st22" d="M209.3,152c-5.4,0-9.9-3.5-11.4-8.4L116,169.7c12.5,39.6,49.6,68.2,93.3,68.2c10.3,0,20.3-1.6,29.6-4.6
	l-26.4-81.8C211.5,151.9,210.4,152,209.3,152z"/>
<path class="st23" d="M209.3,128.3c0.8,0,1.7,0.1,2.5,0.3l21.1-83.4c-7.5-1.9-15.4-2.9-23.6-2.9c-0.2,0-0.3,0-0.5,0v86
	C209,128.3,209.1,128.3,209.3,128.3z"/>
<g>
	<path class="st24" d="M223.8,26.3h2.1c1.6,0,2.7,0.5,2.7,2.1c0,1.5-1.1,2.3-2.7,2.3h-1.2v2.9h-0.9V26.3z M225.9,29.9
		c1.3,0,1.9-0.5,1.9-1.5c0-1.1-0.7-1.4-1.9-1.4h-1v2.9H225.9z"/>
	<path class="st24" d="M230.1,28.2h0.8l0.1,1h0c0.4-0.7,0.9-1.1,1.5-1.1c0.2,0,0.4,0,0.6,0.1l-0.2,0.8c-0.2-0.1-0.3-0.1-0.5-0.1
		c-0.5,0-1,0.3-1.4,1.2v3.5h-0.9V28.2z"/>
	<path class="st24" d="M233.8,26.5c0-0.4,0.3-0.6,0.6-0.6c0.4,0,0.6,0.2,0.6,0.6c0,0.3-0.3,0.6-0.6,0.6
		C234.1,27.1,233.8,26.8,233.8,26.5z M234,28.2h0.9v5.4H234V28.2z"/>
	<path class="st24" d="M235.9,28.2h0.9l1,3.1c0.2,0.5,0.3,1.1,0.5,1.6h0c0.2-0.5,0.3-1.1,0.5-1.6l1-3.1h0.9l-1.9,5.4h-1.1
		L235.9,28.2z"/>
	<path class="st24" d="M241.4,32.2c0-1.2,1-1.8,3.3-2c0-0.7-0.2-1.4-1.1-1.4c-0.6,0-1.2,0.3-1.6,0.6l-0.4-0.6
		c0.5-0.3,1.3-0.7,2.1-0.7c1.3,0,1.9,0.9,1.9,2.2v3.3h-0.8l-0.1-0.6h0c-0.5,0.4-1.1,0.8-1.8,0.8C242,33.7,241.4,33.2,241.4,32.2z
		 M244.7,32.3v-1.5c-1.8,0.2-2.4,0.7-2.4,1.4c0,0.6,0.4,0.9,1,0.9C243.7,33,244.2,32.7,244.7,32.3z"/>
	<path class="st24" d="M247.3,31.9v-3h-0.8v-0.7l0.8-0.1l0.1-1.5h0.8v1.5h1.5v0.7h-1.5v3c0,0.7,0.2,1,0.8,1c0.2,0,0.4-0.1,0.6-0.1
		l0.2,0.7c-0.3,0.1-0.7,0.2-1,0.2C247.7,33.7,247.3,33,247.3,31.9z"/>
	<path class="st24" d="M250.4,30.9c0-1.8,1.2-2.9,2.4-2.9c1.4,0,2.2,1,2.2,2.5c0,0.2,0,0.4,0,0.5h-3.7c0.1,1.2,0.8,1.9,1.8,1.9
		c0.5,0,1-0.2,1.4-0.4l0.3,0.6c-0.5,0.3-1.1,0.6-1.8,0.6C251.6,33.7,250.4,32.7,250.4,30.9z M254.2,30.4c0-1.1-0.5-1.7-1.3-1.7
		c-0.8,0-1.4,0.6-1.6,1.7H254.2z"/>
	<path class="st24" d="M258.1,32.6l0.5-0.6c0.5,0.5,1.3,0.9,2,0.9c1,0,1.5-0.5,1.5-1.2c0-0.7-0.5-1-1.2-1.3L260,30
		c-0.7-0.3-1.5-0.8-1.5-1.9c0-1.1,1-1.9,2.3-1.9c0.9,0,1.6,0.4,2.2,0.9l-0.5,0.6c-0.4-0.4-1-0.7-1.7-0.7c-0.8,0-1.4,0.4-1.4,1.1
		c0,0.7,0.6,1,1.2,1.2l1,0.4c0.8,0.4,1.5,0.9,1.5,2c0,1.2-1,2.1-2.5,2.1C259.7,33.7,258.8,33.3,258.1,32.6z"/>
	<path class="st24" d="M264.2,32.2c0-1.2,1-1.8,3.3-2c0-0.7-0.2-1.4-1.1-1.4c-0.6,0-1.2,0.3-1.6,0.6l-0.4-0.6
		c0.5-0.3,1.3-0.7,2.1-0.7c1.3,0,1.9,0.9,1.9,2.2v3.3h-0.8l-0.1-0.6h0c-0.5,0.4-1.1,0.8-1.8,0.8C264.9,33.7,264.2,33.2,264.2,32.2z
		 M267.6,32.3v-1.5c-1.8,0.2-2.4,0.7-2.4,1.4c0,0.6,0.4,0.9,1,0.9C266.6,33,267,32.7,267.6,32.3z"/>
	<path class="st24" d="M270.2,32.5v-6.9h0.9v6.9c0,0.3,0.1,0.4,0.3,0.4c0,0,0.1,0,0.2,0l0.1,0.7c-0.1,0.1-0.3,0.1-0.5,0.1
		C270.5,33.7,270.2,33.3,270.2,32.5z"/>
	<path class="st24" d="M272.6,30.9c0-1.8,1.2-2.9,2.4-2.9c1.4,0,2.2,1,2.2,2.5c0,0.2,0,0.4,0,0.5h-3.7c0.1,1.2,0.8,1.9,1.8,1.9
		c0.5,0,1-0.2,1.4-0.4l0.3,0.6c-0.5,0.3-1.1,0.6-1.8,0.6C273.8,33.7,272.6,32.7,272.6,30.9z M276.4,30.4c0-1.1-0.5-1.7-1.3-1.7
		c-0.8,0-1.4,0.6-1.6,1.7H276.4z"/>
	<path class="st24" d="M280.2,32.8l0.5-0.6c0.4,0.4,0.9,0.8,1.8,0.8c0.9,0,1.6-0.7,1.6-1.7c0-1-0.6-1.7-1.5-1.7
		c-0.5,0-0.8,0.1-1.2,0.4l-0.5-0.3l0.2-3.4h3.6v0.8h-2.8l-0.2,2.1c0.3-0.2,0.6-0.3,1.1-0.3c1.2,0,2.2,0.7,2.2,2.3
		c0,1.6-1.2,2.5-2.4,2.5C281.4,33.7,280.7,33.2,280.2,32.8z"/>
	<path class="st24" d="M285.8,28.4c0-1.5,0.7-2.3,1.7-2.3c1,0,1.7,0.8,1.7,2.3c0,1.5-0.7,2.3-1.7,2.3
		C286.5,30.8,285.8,29.9,285.8,28.4z M288.5,28.4c0-1.2-0.4-1.7-1-1.7c-0.6,0-1,0.6-1,1.7c0,1.2,0.4,1.8,1,1.8
		C288.1,30.2,288.5,29.6,288.5,28.4z M291.8,26.1h0.6l-4,7.6h-0.6L291.8,26.1z M290.9,31.4c0-1.5,0.7-2.3,1.7-2.3
		c1,0,1.7,0.8,1.7,2.3c0,1.5-0.7,2.3-1.7,2.3C291.6,33.7,290.9,32.9,290.9,31.4z M293.6,31.4c0-1.2-0.4-1.7-1-1.7
		c-0.6,0-1,0.6-1,1.7s0.4,1.8,1,1.8C293.2,33.2,293.6,32.6,293.6,31.4z"/>
</g>
<polygon class="st25" points="219,52.5 218.1,52.2 222.5,36.4 294.3,36.4 294.3,37.4 223.2,37.4 "/>
<g>
	<g>
		<path class="st24" d="M279.6,49h1.1l1.4,3.9c0.2,0.5,0.3,1,0.5,1.5h0c0.2-0.5,0.3-1,0.5-1.5l1.4-3.9h1.1v7.3h-0.9v-4.1
			c0-0.6,0.1-1.5,0.1-2.2h0l-0.6,1.7l-1.4,3.8h-0.6l-1.4-3.8l-0.6-1.7h0c0,0.6,0.1,1.5,0.1,2.2v4.1h-0.8V49z"/>
		<path class="st24" d="M287.3,54.9c0-1.2,1-1.8,3.3-2c0-0.7-0.2-1.4-1.1-1.4c-0.6,0-1.2,0.3-1.6,0.6l-0.4-0.6
			c0.5-0.3,1.3-0.7,2.1-0.7c1.3,0,1.9,0.9,1.9,2.2v3.3h-0.8l-0.1-0.6h0c-0.5,0.4-1.1,0.8-1.8,0.8C288,56.5,287.3,55.9,287.3,54.9z
			 M290.6,55v-1.5c-1.8,0.2-2.4,0.7-2.4,1.4c0,0.6,0.4,0.9,1,0.9C289.7,55.7,290.1,55.5,290.6,55z"/>
		<path class="st24" d="M293.3,50.9h0.8l0.1,1h0c0.4-0.7,0.9-1.1,1.5-1.1c0.2,0,0.4,0,0.6,0.1l-0.2,0.8c-0.2-0.1-0.3-0.1-0.5-0.1
			c-0.5,0-1,0.3-1.4,1.2v3.5h-0.9V50.9z"/>
		<path class="st24" d="M297.1,48.4h0.9v5.4h0l2.3-2.9h1l-1.8,2.2l2.1,3.2h-1l-1.6-2.6l-1,1.2v1.4h-0.9V48.4z"/>
		<path class="st24" d="M302.1,53.6c0-1.8,1.2-2.9,2.4-2.9c1.4,0,2.2,1,2.2,2.5c0,0.2,0,0.4,0,0.5H303c0.1,1.2,0.8,1.9,1.8,1.9
			c0.5,0,1-0.2,1.4-0.4l0.3,0.6c-0.5,0.3-1.1,0.6-1.8,0.6C303.2,56.5,302.1,55.4,302.1,53.6z M305.9,53.2c0-1.1-0.5-1.7-1.3-1.7
			c-0.8,0-1.4,0.6-1.6,1.7H305.9z"/>
		<path class="st24" d="M308.1,54.7v-3h-0.8V51l0.8-0.1l0.1-1.5h0.8v1.5h1.5v0.7H309v3c0,0.7,0.2,1,0.8,1c0.2,0,0.4-0.1,0.6-0.1
			l0.2,0.7c-0.3,0.1-0.7,0.2-1,0.2C308.4,56.5,308.1,55.7,308.1,54.7z"/>
		<path class="st24" d="M311.5,49.2c0-0.4,0.3-0.6,0.6-0.6c0.4,0,0.6,0.2,0.6,0.6c0,0.3-0.3,0.6-0.6,0.6
			C311.8,49.8,311.5,49.5,311.5,49.2z M311.7,50.9h0.9v5.4h-0.9V50.9z"/>
		<path class="st24" d="M314.4,50.9h0.7l0.1,0.8h0c0.5-0.5,1.1-0.9,1.8-0.9c1.1,0,1.7,0.7,1.7,2.1v3.4h-0.9V53c0-1-0.3-1.4-1-1.4
			c-0.6,0-0.9,0.3-1.5,0.8v3.9h-0.9V50.9z"/>
		<path class="st24" d="M320.1,57.4c0-0.5,0.3-0.9,0.8-1.2v0c-0.3-0.2-0.5-0.5-0.5-0.9c0-0.5,0.3-0.8,0.6-1v0
			c-0.4-0.3-0.7-0.8-0.7-1.5c0-1.2,0.9-1.9,2-1.9c0.3,0,0.6,0.1,0.8,0.1h1.9v0.7h-1.1c0.3,0.2,0.4,0.6,0.4,1.1c0,1.2-0.9,1.9-2,1.9
			c-0.3,0-0.6-0.1-0.8-0.2c-0.2,0.2-0.3,0.4-0.3,0.6c0,0.3,0.2,0.6,0.9,0.6h1.1c1.3,0,1.9,0.4,1.9,1.3c0,1-1.1,1.9-2.7,1.9
			C321,58.8,320.1,58.3,320.1,57.4z M324.2,57.1c0-0.5-0.4-0.7-1.1-0.7h-0.9c-0.2,0-0.5,0-0.7-0.1c-0.4,0.3-0.6,0.6-0.6,0.9
			c0,0.6,0.6,1,1.6,1C323.5,58.2,324.2,57.7,324.2,57.1z M323.5,52.7c0-0.8-0.5-1.3-1.1-1.3s-1.2,0.5-1.2,1.3c0,0.8,0.5,1.3,1.2,1.3
			C323,54,323.5,53.5,323.5,52.7z"/>
		<path class="st24" d="M328.4,55.6h1.6v-5.5h-1.3v-0.6c0.6-0.1,1.1-0.3,1.5-0.5h0.7v6.6h1.5v0.8h-4V55.6z"/>
		<path class="st24" d="M333.5,52.6c0-2.5,0.9-3.8,2.3-3.8c1.4,0,2.3,1.2,2.3,3.8c0,2.5-0.9,3.8-2.3,3.8
			C334.4,56.5,333.5,55.2,333.5,52.6z M337.2,52.6c0-2.1-0.6-3-1.4-3c-0.8,0-1.4,0.9-1.4,3c0,2.2,0.6,3.1,1.4,3.1
			C336.6,55.7,337.2,54.8,337.2,52.6z"/>
		<path class="st24" d="M339,51.2c0-1.5,0.7-2.3,1.7-2.3c1,0,1.7,0.8,1.7,2.3c0,1.5-0.7,2.3-1.7,2.3C339.6,53.5,339,52.6,339,51.2z
			 M341.6,51.2c0-1.2-0.4-1.7-1-1.7c-0.6,0-1,0.6-1,1.7c0,1.2,0.4,1.8,1,1.8C341.2,52.9,341.6,52.3,341.6,51.2z M344.9,48.9h0.6
			l-4,7.6h-0.6L344.9,48.9z M344.1,54.1c0-1.5,0.7-2.3,1.7-2.3c1,0,1.7,0.8,1.7,2.3c0,1.5-0.7,2.3-1.7,2.3
			C344.7,56.5,344.1,55.6,344.1,54.1z M346.7,54.1c0-1.2-0.4-1.7-1-1.7c-0.6,0-1,0.6-1,1.7s0.4,1.8,1,1.8
			C346.3,55.9,346.7,55.3,346.7,54.1z"/>
	</g>
</g>
<polygon class="st25" points="249.5,78.4 249,77.6 278.5,59.8 349.2,59.8 349.2,60.8 278.7,60.8 "/>
<g>
	<path class="st24" d="M310.8,97.1l0.5-0.6c0.5,0.5,1.3,0.9,2,0.9c1,0,1.5-0.5,1.5-1.2c0-0.7-0.5-1-1.2-1.3l-1.1-0.5
		c-0.7-0.3-1.5-0.8-1.5-1.9c0-1.1,1-1.9,2.3-1.9c0.9,0,1.6,0.4,2.2,0.9l-0.5,0.6c-0.4-0.4-1-0.7-1.7-0.7c-0.8,0-1.4,0.4-1.4,1.1
		c0,0.7,0.6,1,1.2,1.2l1,0.4c0.8,0.4,1.5,0.9,1.5,2c0,1.2-1,2.1-2.5,2.1C312.3,98.2,311.4,97.8,310.8,97.1z"/>
	<path class="st24" d="M317.1,96.4v-3h-0.8v-0.7l0.8-0.1l0.1-1.5h0.8v1.5h1.5v0.7H318v3c0,0.7,0.2,1,0.8,1c0.2,0,0.4-0.1,0.6-0.1
		l0.2,0.7c-0.3,0.1-0.7,0.2-1,0.2C317.5,98.2,317.1,97.5,317.1,96.4z"/>
	<path class="st24" d="M320.7,92.6h0.8l0.1,1h0c0.4-0.7,0.9-1.1,1.5-1.1c0.2,0,0.4,0,0.6,0.1l-0.2,0.8c-0.2-0.1-0.3-0.1-0.5-0.1
		c-0.5,0-1,0.3-1.4,1.2V98h-0.9V92.6z"/>
	<path class="st24" d="M324,96.6c0-1.2,1-1.8,3.3-2c0-0.7-0.2-1.4-1.1-1.4c-0.6,0-1.2,0.3-1.6,0.6l-0.4-0.6c0.5-0.3,1.3-0.7,2.1-0.7
		c1.3,0,1.9,0.9,1.9,2.2V98h-0.7l-0.1-0.6h0c-0.5,0.4-1.1,0.8-1.8,0.8C324.7,98.2,324,97.6,324,96.6z M327.3,96.7v-1.5
		c-1.8,0.2-2.4,0.7-2.4,1.4c0,0.6,0.4,0.9,1,0.9C326.4,97.4,326.8,97.2,327.3,96.7z"/>
	<path class="st24" d="M330,96.4v-3h-0.8v-0.7l0.8-0.1l0.1-1.5h0.8v1.5h1.5v0.7h-1.5v3c0,0.7,0.2,1,0.8,1c0.2,0,0.4-0.1,0.6-0.1
		l0.2,0.7c-0.3,0.1-0.7,0.2-1,0.2C330.4,98.2,330,97.5,330,96.4z"/>
	<path class="st24" d="M333,95.3c0-1.8,1.2-2.9,2.4-2.9c1.4,0,2.2,1,2.2,2.5c0,0.2,0,0.4,0,0.5h-3.7c0.1,1.2,0.8,1.9,1.8,1.9
		c0.5,0,1-0.2,1.4-0.4l0.3,0.6c-0.5,0.3-1.1,0.6-1.8,0.6C334.2,98.2,333,97.1,333,95.3z M336.8,94.9c0-1.1-0.5-1.7-1.3-1.7
		c-0.8,0-1.4,0.6-1.6,1.7H336.8z"/>
	<path class="st24" d="M338.4,99.1c0-0.5,0.3-0.9,0.8-1.2v0c-0.3-0.2-0.5-0.5-0.5-0.9c0-0.5,0.3-0.8,0.6-1v0
		c-0.4-0.3-0.7-0.8-0.7-1.5c0-1.2,0.9-1.9,2-1.9c0.3,0,0.6,0.1,0.8,0.1h1.9v0.7h-1.1c0.3,0.2,0.4,0.6,0.4,1.1c0,1.2-0.9,1.9-2,1.9
		c-0.3,0-0.6-0.1-0.8-0.2c-0.2,0.2-0.3,0.4-0.3,0.6c0,0.3,0.2,0.6,0.9,0.6h1.1c1.3,0,1.9,0.4,1.9,1.3c0,1-1.1,1.9-2.7,1.9
		C339.4,100.5,338.4,100,338.4,99.1z M342.6,98.8c0-0.5-0.4-0.7-1.1-0.7h-0.9c-0.2,0-0.5,0-0.7-0.1c-0.4,0.3-0.6,0.6-0.6,0.9
		c0,0.6,0.6,1,1.6,1C341.9,99.9,342.6,99.4,342.6,98.8z M341.8,94.4c0-0.8-0.5-1.3-1.1-1.3s-1.2,0.5-1.2,1.3c0,0.8,0.5,1.3,1.2,1.3
		C341.3,95.7,341.8,95.2,341.8,94.4z"/>
	<path class="st24" d="M344.3,90.9c0-0.4,0.3-0.6,0.6-0.6c0.4,0,0.6,0.2,0.6,0.6c0,0.3-0.3,0.6-0.6,0.6
		C344.6,91.5,344.3,91.2,344.3,90.9z M344.5,92.6h0.9V98h-0.9V92.6z"/>
	<path class="st24" d="M346.8,95.3c0-1.8,1.2-2.9,2.6-2.9c0.7,0,1.2,0.3,1.6,0.6l-0.5,0.6c-0.3-0.3-0.6-0.5-1.1-0.5
		c-1,0-1.7,0.8-1.7,2.1s0.7,2.1,1.7,2.1c0.5,0,0.9-0.2,1.3-0.5l0.4,0.6c-0.5,0.4-1.1,0.7-1.7,0.7C347.9,98.2,346.8,97.1,346.8,95.3z
		"/>
	<path class="st24" d="M354.7,90.7h2.1c1.6,0,2.7,0.5,2.7,2.1c0,1.5-1.1,2.3-2.7,2.3h-1.2V98h-0.9V90.7z M356.7,94.4
		c1.3,0,1.9-0.5,1.9-1.5c0-1.1-0.7-1.4-1.9-1.4h-1v2.9H356.7z"/>
	<path class="st24" d="M360.1,96.6c0-1.2,1-1.8,3.3-2c0-0.7-0.2-1.4-1.1-1.4c-0.6,0-1.2,0.3-1.6,0.6l-0.4-0.6
		c0.5-0.3,1.3-0.7,2.1-0.7c1.3,0,1.9,0.9,1.9,2.2V98h-0.7l-0.1-0.6h0c-0.5,0.4-1.1,0.8-1.8,0.8C360.8,98.2,360.1,97.6,360.1,96.6z
		 M363.4,96.7v-1.5c-1.8,0.2-2.4,0.7-2.4,1.4c0,0.6,0.4,0.9,1,0.9C362.5,97.4,362.9,97.2,363.4,96.7z"/>
	<path class="st24" d="M366.1,92.6h0.8l0.1,1h0c0.4-0.7,0.9-1.1,1.5-1.1c0.2,0,0.4,0,0.6,0.1l-0.2,0.8c-0.2-0.1-0.3-0.1-0.5-0.1
		c-0.5,0-1,0.3-1.4,1.2V98h-0.9V92.6z"/>
	<path class="st24" d="M370.1,96.4v-3h-0.8v-0.7l0.8-0.1l0.1-1.5h0.8v1.5h1.5v0.7H371v3c0,0.7,0.2,1,0.8,1c0.2,0,0.4-0.1,0.6-0.1
		l0.2,0.7c-0.3,0.1-0.7,0.2-1,0.2C370.5,98.2,370.1,97.5,370.1,96.4z"/>
	<path class="st24" d="M373.7,92.6h0.7l0.1,0.8h0c0.5-0.5,1.1-0.9,1.8-0.9c1.1,0,1.7,0.7,1.7,2.1V98h-0.9v-3.3c0-1-0.3-1.4-1-1.4
		c-0.6,0-0.9,0.3-1.5,0.8V98h-0.9V92.6z"/>
	<path class="st24" d="M379.4,95.3c0-1.8,1.2-2.9,2.4-2.9c1.4,0,2.2,1,2.2,2.5c0,0.2,0,0.4,0,0.5h-3.7c0.1,1.2,0.8,1.9,1.8,1.9
		c0.5,0,1-0.2,1.4-0.4l0.3,0.6c-0.5,0.3-1.1,0.6-1.8,0.6C380.6,98.2,379.4,97.1,379.4,95.3z M383.2,94.9c0-1.1-0.5-1.7-1.3-1.7
		c-0.8,0-1.4,0.6-1.6,1.7H383.2z"/>
	<path class="st24" d="M385.4,92.6h0.7l0.1,1h0c0.4-0.7,0.9-1.1,1.5-1.1c0.2,0,0.4,0,0.6,0.1l-0.2,0.8c-0.2-0.1-0.3-0.1-0.5-0.1
		c-0.4,0-1,0.3-1.4,1.2V98h-0.9V92.6z"/>
	<path class="st24" d="M388.6,97.4l0.4-0.6c0.5,0.4,1,0.6,1.6,0.6c0.7,0,1.1-0.4,1.1-0.8c0-0.5-0.6-0.8-1.2-1
		c-0.8-0.3-1.6-0.6-1.6-1.6c0-0.9,0.7-1.5,1.9-1.5c0.7,0,1.3,0.3,1.7,0.6l-0.4,0.6c-0.4-0.3-0.8-0.5-1.2-0.5c-0.7,0-1,0.4-1,0.8
		c0,0.5,0.6,0.7,1.2,0.9c0.8,0.3,1.7,0.6,1.7,1.6c0,0.9-0.7,1.6-2,1.6C389.8,98.2,389.1,97.9,388.6,97.4z"/>
	<path class="st24" d="M396.1,97.3h1.6v-5.5h-1.3v-0.6c0.6-0.1,1.1-0.3,1.5-0.5h0.7v6.6h1.5V98h-4V97.3z"/>
	<path class="st24" d="M401.2,94.4c0-2.5,0.9-3.8,2.3-3.8c1.4,0,2.3,1.2,2.3,3.8c0,2.5-0.9,3.8-2.3,3.8
		C402.1,98.2,401.2,96.9,401.2,94.4z M404.9,94.4c0-2.1-0.6-3-1.4-3c-0.8,0-1.4,0.9-1.4,3c0,2.2,0.6,3.1,1.4,3.1
		C404.4,97.4,404.9,96.5,404.9,94.4z"/>
	<path class="st24" d="M406.7,92.9c0-1.5,0.7-2.3,1.7-2.3c1,0,1.7,0.8,1.7,2.3c0,1.5-0.7,2.3-1.7,2.3
		C407.3,95.2,406.7,94.4,406.7,92.9z M409.3,92.9c0-1.2-0.4-1.7-1-1.7c-0.6,0-1,0.6-1,1.7c0,1.2,0.4,1.8,1,1.8
		C408.9,94.6,409.3,94,409.3,92.9z M412.6,90.6h0.6l-4,7.6h-0.6L412.6,90.6z M411.8,95.9c0-1.5,0.7-2.3,1.7-2.3c1,0,1.7,0.8,1.7,2.3
		c0,1.5-0.7,2.3-1.7,2.3C412.5,98.2,411.8,97.3,411.8,95.9z M414.4,95.9c0-1.2-0.4-1.7-1-1.7c-0.6,0-1,0.6-1,1.7s0.4,1.8,1,1.8
		C414,97.6,414.4,97,414.4,95.9z"/>
</g>
<polygon class="st25" points="274.9,119.8 274.5,118.9 307,103.7 416.9,103.7 416.9,104.7 307.2,104.7 "/>
<g>
	<path class="st24" d="M307.6,189.6h-2.2v-0.8h5.4v0.8h-2.2v6.5h-0.9V189.6z"/>
	<path class="st24" d="M310.9,193.4c0-1.8,1.2-2.9,2.4-2.9c1.4,0,2.2,1,2.2,2.5c0,0.2,0,0.4,0,0.5h-3.7c0.1,1.2,0.8,1.9,1.8,1.9
		c0.5,0,1-0.2,1.4-0.4l0.3,0.6c-0.5,0.3-1.1,0.6-1.8,0.6C312,196.3,310.9,195.2,310.9,193.4z M314.7,193c0-1.1-0.5-1.7-1.3-1.7
		c-0.8,0-1.4,0.6-1.6,1.7H314.7z"/>
	<path class="st24" d="M316.3,194.7c0-1.2,1-1.8,3.3-2c0-0.7-0.2-1.4-1.1-1.4c-0.6,0-1.2,0.3-1.6,0.6l-0.4-0.6
		c0.5-0.3,1.3-0.7,2.1-0.7c1.3,0,1.9,0.9,1.9,2.2v3.3h-0.8l-0.1-0.6h0c-0.5,0.4-1.1,0.8-1.8,0.8C317,196.3,316.3,195.7,316.3,194.7z
		 M319.6,194.8v-1.5c-1.8,0.2-2.4,0.7-2.4,1.4c0,0.6,0.4,0.9,1,0.9C318.7,195.5,319.1,195.3,319.6,194.8z"/>
	<path class="st24" d="M322.3,190.7h0.7l0.1,0.8h0c0.5-0.5,1-0.9,1.7-0.9c0.8,0,1.3,0.4,1.5,1c0.6-0.6,1.1-1,1.8-1
		c1.1,0,1.6,0.7,1.6,2.1v3.4h-0.9v-3.3c0-1-0.3-1.4-1-1.4c-0.4,0-0.9,0.3-1.4,0.8v3.9h-0.9v-3.3c0-1-0.3-1.4-1-1.4
		c-0.4,0-0.9,0.3-1.4,0.8v3.9h-0.9V190.7z"/>
	<path class="st24" d="M339.2,196.3c-0.5-0.1-1.1-0.4-1.7-0.8c-0.6,0.5-1.2,0.8-2.1,0.8c-1.3,0-2.2-0.8-2.2-2c0-1,0.7-1.6,1.4-2.1
		c-0.3-0.6-0.5-1.2-0.5-1.7c0-1,0.7-1.7,1.7-1.7c0.9,0,1.4,0.6,1.4,1.4c0,1-0.8,1.6-1.6,2.2c0.5,0.8,1.2,1.5,1.9,2.1
		c0.5-0.6,0.8-1.3,1-2.2h0.8c-0.3,1-0.7,1.9-1.3,2.6c0.5,0.3,1,0.6,1.4,0.7L339.2,196.3z M335.6,195.5c0.5,0,1-0.2,1.4-0.6
		c-0.7-0.6-1.4-1.4-1.9-2.2c-0.5,0.4-0.9,0.9-0.9,1.4C334.1,195,334.7,195.5,335.6,195.5z M335.3,191.7c0.7-0.5,1.2-0.9,1.2-1.5
		c0-0.4-0.2-0.8-0.7-0.8c-0.5,0-0.9,0.4-0.9,1.1C335,190.8,335.1,191.2,335.3,191.7z"/>
	<path class="st24" d="M346.3,193.9h-2.7l-0.7,2.2h-0.9l2.5-7.3h1l2.5,7.3h-1L346.3,193.9z M346,193.2l-0.3-1.1
		c-0.3-0.8-0.5-1.6-0.7-2.5h0c-0.2,0.9-0.5,1.6-0.7,2.5l-0.4,1.1H346z"/>
	<path class="st24" d="M348.5,193.4c0-1.8,1.1-2.9,2.3-2.9c0.6,0,1,0.2,1.5,0.6l0-0.9v-2.1h0.9v8h-0.7l-0.1-0.6h0
		c-0.4,0.4-1,0.8-1.6,0.8C349.4,196.3,348.5,195.2,348.5,193.4z M352.3,194.8v-2.8c-0.5-0.4-0.9-0.6-1.3-0.6c-0.9,0-1.6,0.8-1.6,2.1
		c0,1.3,0.5,2.1,1.5,2.1C351.4,195.5,351.9,195.3,352.3,194.8z"/>
	<path class="st24" d="M354.3,190.7h1l1,3.1c0.2,0.5,0.3,1.1,0.5,1.6h0c0.2-0.5,0.3-1.1,0.5-1.6l1-3.1h0.9l-1.9,5.4h-1.1
		L354.3,190.7z"/>
	<path class="st24" d="M360.1,189c0-0.4,0.3-0.6,0.6-0.6c0.4,0,0.6,0.2,0.6,0.6c0,0.3-0.3,0.6-0.6,0.6
		C360.4,189.6,360.1,189.3,360.1,189z M360.3,190.7h0.9v5.4h-0.9V190.7z"/>
	<path class="st24" d="M362.4,195.5l0.4-0.6c0.5,0.4,1,0.6,1.6,0.6c0.7,0,1.1-0.4,1.1-0.8c0-0.5-0.6-0.8-1.2-1
		c-0.8-0.3-1.6-0.7-1.6-1.6c0-0.9,0.7-1.5,1.9-1.5c0.7,0,1.3,0.3,1.7,0.6l-0.4,0.6c-0.4-0.3-0.8-0.5-1.2-0.5c-0.7,0-1,0.4-1,0.8
		c0,0.5,0.6,0.7,1.2,0.9c0.8,0.3,1.7,0.6,1.7,1.6c0,0.9-0.7,1.6-2,1.6C363.7,196.3,363,195.9,362.4,195.5z"/>
	<path class="st24" d="M367.3,193.4c0-1.8,1.2-2.9,2.5-2.9s2.5,1,2.5,2.9c0,1.8-1.2,2.8-2.5,2.8S367.3,195.2,367.3,193.4z
		 M371.4,193.4c0-1.2-0.6-2.1-1.6-2.1s-1.6,0.8-1.6,2.1c0,1.2,0.6,2.1,1.6,2.1S371.4,194.7,371.4,193.4z"/>
	<path class="st24" d="M373.8,190.7h0.8l0.1,1h0c0.4-0.7,0.9-1.1,1.5-1.1c0.2,0,0.4,0,0.6,0.1l-0.2,0.8c-0.2-0.1-0.3-0.1-0.5-0.1
		c-0.5,0-1,0.3-1.4,1.2v3.5h-0.9V190.7z"/>
	<path class="st24" d="M377,195.5l0.5-0.6c0.5,0.4,1,0.6,1.6,0.6c0.7,0,1.1-0.4,1.1-0.8c0-0.5-0.6-0.8-1.2-1
		c-0.8-0.3-1.6-0.7-1.6-1.6c0-0.9,0.7-1.5,1.9-1.5c0.7,0,1.3,0.3,1.7,0.6l-0.4,0.6c-0.4-0.3-0.8-0.5-1.2-0.5c-0.7,0-1,0.4-1,0.8
		c0,0.5,0.6,0.7,1.2,0.9c0.8,0.3,1.7,0.6,1.7,1.6c0,0.9-0.7,1.6-2,1.6C378.3,196.3,377.5,195.9,377,195.5z"/>
	<path class="st24" d="M384.1,195.6c2.3-2,3.4-3.5,3.4-4.7c0-0.8-0.4-1.4-1.3-1.4c-0.6,0-1.1,0.4-1.5,0.8l-0.5-0.5
		c0.6-0.6,1.2-1.1,2.2-1.1c1.3,0,2.1,0.9,2.1,2.2c0,1.5-1.1,2.9-2.9,4.6c0.4,0,0.8-0.1,1.2-0.1h2v0.8h-4.6V195.6z"/>
	<path class="st24" d="M389.7,192.4c0-2.5,0.9-3.8,2.3-3.8c1.4,0,2.3,1.2,2.3,3.8c0,2.5-0.9,3.8-2.3,3.8
		C390.6,196.3,389.7,195,389.7,192.4z M393.4,192.4c0-2.1-0.6-3-1.4-3c-0.8,0-1.4,0.9-1.4,3c0,2.2,0.6,3.1,1.4,3.1
		C392.8,195.5,393.4,194.6,393.4,192.4z"/>
	<path class="st24" d="M395.1,191c0-1.5,0.7-2.3,1.7-2.3c1,0,1.7,0.8,1.7,2.3c0,1.5-0.7,2.3-1.7,2.3
		C395.8,193.3,395.1,192.4,395.1,191z M397.8,191c0-1.2-0.4-1.7-1-1.7c-0.6,0-1,0.6-1,1.7s0.4,1.8,1,1.8
		C397.4,192.7,397.8,192.1,397.8,191z M401,188.7h0.6l-4,7.6H397L401,188.7z M400.2,193.9c0-1.5,0.7-2.3,1.7-2.3s1.7,0.8,1.7,2.3
		c0,1.5-0.7,2.3-1.7,2.3S400.2,195.4,400.2,193.9z M402.9,193.9c0-1.2-0.4-1.7-1-1.7c-0.6,0-1,0.6-1,1.7c0,1.2,0.4,1.8,1,1.8
		C402.5,195.7,402.9,195.1,402.9,193.9z"/>
</g>
<polygon class="st25" points="405.6,200.1 305.1,200.1 271.5,179.2 272,178.4 305.4,199.1 405.6,199.1 "/>
<g>
	<path class="st24" d="M77,226.2l-1.8-3.1h-1.3v3.1H73v-7.3h2.3c1.5,0,2.6,0.5,2.6,2.1c0,1.1-0.7,1.8-1.7,2.1l1.9,3.2H77z
		 M73.9,222.3h1.2c1.1,0,1.8-0.5,1.8-1.4c0-1-0.6-1.3-1.8-1.3h-1.2V222.3z"/>
	<path class="st24" d="M78.7,223.5c0-1.8,1.2-2.9,2.4-2.9c1.4,0,2.2,1,2.2,2.5c0,0.2,0,0.4,0,0.5h-3.7c0.1,1.2,0.8,1.9,1.8,1.9
		c0.5,0,1-0.2,1.4-0.4l0.3,0.6c-0.5,0.3-1.1,0.6-1.8,0.6C79.9,226.3,78.7,225.3,78.7,223.5z M82.5,223c0-1.1-0.5-1.7-1.3-1.7
		c-0.8,0-1.4,0.6-1.6,1.7H82.5z"/>
	<path class="st24" d="M84.1,225.6l0.4-0.6c0.5,0.4,1,0.6,1.6,0.6c0.7,0,1.1-0.4,1.1-0.8c0-0.5-0.6-0.8-1.2-1
		c-0.8-0.3-1.6-0.7-1.6-1.6c0-0.9,0.7-1.5,1.9-1.5c0.7,0,1.3,0.3,1.7,0.6l-0.4,0.6c-0.4-0.3-0.8-0.5-1.2-0.5c-0.7,0-1,0.4-1,0.8
		c0,0.5,0.6,0.7,1.2,0.9c0.8,0.3,1.7,0.6,1.7,1.6c0,0.9-0.7,1.6-2,1.6C85.3,226.3,84.6,226,84.1,225.6z"/>
	<path class="st24" d="M89,223.5c0-1.8,1.2-2.9,2.4-2.9c1.4,0,2.2,1,2.2,2.5c0,0.2,0,0.4,0,0.5h-3.7c0.1,1.2,0.8,1.9,1.8,1.9
		c0.5,0,1-0.2,1.4-0.4l0.3,0.6c-0.5,0.3-1.1,0.6-1.8,0.6C90.1,226.3,89,225.3,89,223.5z M92.8,223c0-1.1-0.5-1.7-1.3-1.7
		c-0.8,0-1.4,0.6-1.6,1.7H92.8z"/>
	<path class="st24" d="M94.9,220.8h0.7l0.1,1h0c0.4-0.7,0.9-1.1,1.5-1.1c0.2,0,0.4,0,0.6,0.1l-0.2,0.8c-0.2-0.1-0.3-0.1-0.5-0.1
		c-0.4,0-1,0.3-1.4,1.2v3.5h-0.9V220.8z"/>
	<path class="st24" d="M98.3,220.8h0.9l1,3.1c0.2,0.5,0.3,1.1,0.5,1.6h0c0.2-0.5,0.3-1.1,0.5-1.6l1-3.1h0.9l-1.9,5.4h-1.1
		L98.3,220.8z"/>
	<path class="st24" d="M103.8,223.5c0-1.8,1.2-2.9,2.4-2.9c1.4,0,2.2,1,2.2,2.5c0,0.2,0,0.4,0,0.5h-3.7c0.1,1.2,0.8,1.9,1.8,1.9
		c0.5,0,1-0.2,1.4-0.4l0.3,0.6c-0.5,0.3-1.1,0.6-1.8,0.6C105,226.3,103.8,225.3,103.8,223.5z M107.6,223c0-1.1-0.5-1.7-1.3-1.7
		c-0.8,0-1.4,0.6-1.6,1.7H107.6z"/>
	<path class="st24" d="M109.2,225.6l0.4-0.6c0.5,0.4,1,0.6,1.6,0.6c0.7,0,1.1-0.4,1.1-0.8c0-0.5-0.6-0.8-1.2-1
		c-0.8-0.3-1.6-0.7-1.6-1.6c0-0.9,0.7-1.5,1.9-1.5c0.7,0,1.3,0.3,1.7,0.6l-0.4,0.6c-0.4-0.3-0.8-0.5-1.2-0.5c-0.7,0-1,0.4-1,0.8
		c0,0.5,0.6,0.7,1.2,0.9c0.8,0.3,1.7,0.6,1.7,1.6c0,0.9-0.7,1.6-2,1.6C110.4,226.3,109.7,226,109.2,225.6z"/>
	<path class="st24" d="M116.2,225.7c2.3-2,3.4-3.5,3.4-4.7c0-0.8-0.4-1.4-1.3-1.4c-0.6,0-1.1,0.4-1.5,0.8l-0.5-0.5
		c0.6-0.6,1.2-1.1,2.2-1.1c1.3,0,2.1,0.9,2.1,2.2c0,1.5-1.1,2.9-2.9,4.6c0.4,0,0.8-0.1,1.2-0.1h2v0.8h-4.6V225.7z"/>
	<path class="st24" d="M121.6,225.4l0.4-0.6c0.4,0.4,0.9,0.8,1.8,0.8c0.9,0,1.6-0.7,1.6-1.7c0-1-0.6-1.7-1.5-1.7
		c-0.5,0-0.8,0.1-1.2,0.4l-0.5-0.3l0.2-3.4h3.6v0.8h-2.8l-0.2,2.1c0.3-0.2,0.6-0.3,1.1-0.3c1.2,0,2.2,0.7,2.2,2.3s-1.2,2.5-2.4,2.5
		C122.8,226.3,122.1,225.8,121.6,225.4z"/>
	<path class="st24" d="M127.3,221c0-1.5,0.7-2.3,1.7-2.3c1,0,1.7,0.8,1.7,2.3c0,1.5-0.7,2.3-1.7,2.3
		C127.9,223.4,127.3,222.5,127.3,221z M129.9,221c0-1.2-0.4-1.7-1-1.7c-0.6,0-1,0.6-1,1.7s0.4,1.8,1,1.8
		C129.5,222.8,129.9,222.2,129.9,221z M133.2,218.7h0.6l-4,7.6h-0.6L133.2,218.7z M132.4,224c0-1.5,0.7-2.3,1.7-2.3
		c1,0,1.7,0.8,1.7,2.3c0,1.5-0.7,2.3-1.7,2.3C133,226.3,132.4,225.5,132.4,224z M135,224c0-1.2-0.4-1.7-1-1.7c-0.6,0-1,0.6-1,1.7
		c0,1.2,0.4,1.8,1,1.8C134.6,225.8,135,225.2,135,224z"/>
</g>
<polygon class="st25" points="137.4,230 70.2,230 70.2,229 137.1,229 173.7,204.1 174.2,204.9 "/>
<g>
	<path class="st24" d="M14.8,78.1h4.2v0.8h-3.3v2.3h2.8V82h-2.8v2.7h3.4v0.8h-4.3V78.1z"/>
	<path class="st24" d="M20.1,82.7c0-1.8,1.2-2.9,2.6-2.9c0.7,0,1.2,0.3,1.6,0.6l-0.5,0.6c-0.3-0.3-0.6-0.5-1.1-0.5
		c-1,0-1.7,0.8-1.7,2.1s0.7,2.1,1.7,2.1c0.5,0,0.9-0.2,1.3-0.5l0.4,0.6c-0.5,0.4-1.1,0.7-1.7,0.7C21.2,85.6,20.1,84.5,20.1,82.7z"/>
	<path class="st24" d="M25,82.7c0-1.8,1.2-2.9,2.5-2.9s2.5,1,2.5,2.9c0,1.8-1.2,2.8-2.5,2.8S25,84.5,25,82.7z M29.1,82.7
		c0-1.2-0.6-2.1-1.6-2.1s-1.6,0.8-1.6,2.1s0.6,2.1,1.6,2.1S29.1,84,29.1,82.7z"/>
	<path class="st24" d="M30.8,84.8l0.4-0.6c0.5,0.4,1,0.6,1.6,0.6c0.7,0,1.1-0.4,1.1-0.8c0-0.5-0.6-0.8-1.2-1
		c-0.8-0.3-1.6-0.6-1.6-1.6c0-0.9,0.7-1.5,1.9-1.5c0.7,0,1.3,0.3,1.7,0.6l-0.4,0.6c-0.4-0.3-0.8-0.5-1.2-0.5c-0.7,0-1,0.4-1,0.8
		c0,0.5,0.6,0.7,1.2,0.9c0.8,0.3,1.7,0.6,1.7,1.6c0,0.9-0.7,1.6-2,1.6C32.1,85.6,31.4,85.2,30.8,84.8z"/>
	<path class="st24" d="M35.6,87.7l0.2-0.7c0.1,0,0.3,0.1,0.4,0.1c0.6,0,1-0.5,1.2-1.2l0.1-0.4L35.3,80h0.9l1.1,3
		c0.2,0.5,0.3,1,0.5,1.5h0c0.1-0.5,0.3-1,0.5-1.5l1-3h0.9l-2,5.9c-0.4,1.1-0.9,1.9-2,1.9C36,87.8,35.7,87.7,35.6,87.7z"/>
	<path class="st24" d="M40.7,84.8l0.4-0.6c0.5,0.4,1,0.6,1.6,0.6c0.7,0,1.1-0.4,1.1-0.8c0-0.5-0.6-0.8-1.2-1
		c-0.8-0.3-1.6-0.6-1.6-1.6c0-0.9,0.7-1.5,1.9-1.5c0.7,0,1.3,0.3,1.7,0.6l-0.4,0.6c-0.4-0.3-0.8-0.5-1.2-0.5c-0.7,0-1,0.4-1,0.8
		c0,0.5,0.6,0.7,1.2,0.9c0.8,0.3,1.7,0.6,1.7,1.6c0,0.9-0.7,1.6-2,1.6C42,85.6,41.2,85.2,40.7,84.8z"/>
	<path class="st24" d="M46,83.7v-3h-0.8V80L46,80l0.1-1.5h0.8V80h1.5v0.7h-1.5v3c0,0.7,0.2,1,0.8,1c0.2,0,0.4-0.1,0.6-0.1l0.2,0.7
		c-0.3,0.1-0.7,0.2-1,0.2C46.3,85.6,46,84.8,46,83.7z"/>
	<path class="st24" d="M49,82.7c0-1.8,1.2-2.9,2.4-2.9c1.4,0,2.2,1,2.2,2.5c0,0.2,0,0.4,0,0.5h-3.7c0.1,1.2,0.8,1.9,1.8,1.9
		c0.5,0,1-0.2,1.4-0.4l0.3,0.6c-0.5,0.3-1.1,0.6-1.8,0.6C50.2,85.6,49,84.5,49,82.7z M52.8,82.3c0-1.1-0.5-1.7-1.3-1.7
		c-0.8,0-1.4,0.6-1.6,1.7H52.8z"/>
	<path class="st24" d="M55,80h0.7l0.1,0.8h0c0.5-0.5,1-0.9,1.7-0.9c0.8,0,1.3,0.4,1.5,1c0.6-0.6,1.1-1,1.8-1c1.1,0,1.6,0.7,1.6,2.1
		v3.4h-0.9v-3.3c0-1-0.3-1.4-1-1.4c-0.4,0-0.9,0.3-1.4,0.8v3.9h-0.9v-3.3c0-1-0.3-1.4-1-1.4c-0.4,0-0.9,0.3-1.4,0.8v3.9H55V80z"/>
	<path class="st24" d="M66.5,78.1h4.2v0.8h-3.3v2.5h2.8v0.8h-2.8v3.3h-0.9V78.1z"/>
	<path class="st24" d="M71.7,83.4V80h0.9v3.3c0,1,0.3,1.4,1,1.4c0.6,0,0.9-0.3,1.5-0.9V80H76v5.4h-0.8l-0.1-0.8h0
		c-0.5,0.6-1,1-1.8,1C72.2,85.6,71.7,84.8,71.7,83.4z"/>
	<path class="st24" d="M77.9,80h0.7l0.1,0.8h0c0.5-0.5,1.1-0.9,1.8-0.9c1.1,0,1.7,0.7,1.7,2.1v3.4h-0.9v-3.3c0-1-0.3-1.4-1-1.4
		c-0.6,0-0.9,0.3-1.5,0.8v3.9h-0.9V80z"/>
	<path class="st24" d="M83.6,82.7c0-1.8,1.1-2.9,2.3-2.9c0.6,0,1,0.2,1.5,0.6l-0.1-0.9v-2.1h0.9v8h-0.7l-0.1-0.6h0
		c-0.4,0.4-1,0.8-1.6,0.8C84.5,85.6,83.6,84.5,83.6,82.7z M87.4,84v-2.8c-0.5-0.4-0.9-0.6-1.3-0.6c-0.9,0-1.6,0.8-1.6,2.1
		c0,1.3,0.5,2.1,1.5,2.1C86.5,84.8,87,84.5,87.4,84z"/>
	<path class="st24" d="M91.8,84.6l0.5-0.6c0.4,0.4,1,0.8,1.8,0.8c0.9,0,1.5-0.5,1.5-1.4c0-0.9-0.6-1.5-2.3-1.5v-0.7
		c1.5,0,2-0.6,2-1.4c0-0.7-0.5-1.2-1.2-1.2c-0.6,0-1.1,0.3-1.5,0.7l-0.5-0.6c0.5-0.5,1.2-0.9,2-0.9c1.2,0,2.1,0.7,2.1,1.8
		c0,0.9-0.5,1.5-1.3,1.8v0c0.9,0.2,1.6,0.9,1.6,1.9c0,1.3-1,2.1-2.3,2.1C93,85.6,92.3,85.1,91.8,84.6z"/>
	<path class="st24" d="M97.5,81.7c0-2.5,0.9-3.8,2.3-3.8c1.4,0,2.3,1.2,2.3,3.8c0,2.5-0.9,3.8-2.3,3.8
		C98.4,85.6,97.5,84.3,97.5,81.7z M101.2,81.7c0-2.1-0.6-3-1.4-3c-0.8,0-1.4,0.9-1.4,3c0,2.2,0.6,3.1,1.4,3.1
		C100.7,84.8,101.2,83.9,101.2,81.7z"/>
	<path class="st24" d="M103,80.3c0-1.5,0.7-2.3,1.7-2.3c1,0,1.7,0.8,1.7,2.3c0,1.5-0.7,2.3-1.7,2.3C103.6,82.6,103,81.7,103,80.3z
		 M105.6,80.3c0-1.2-0.4-1.7-1-1.7c-0.6,0-1,0.6-1,1.7c0,1.2,0.4,1.8,1,1.8C105.2,82,105.6,81.4,105.6,80.3z M108.9,78h0.6l-4,7.6
		h-0.6L108.9,78z M108.1,83.2c0-1.5,0.7-2.3,1.7-2.3s1.7,0.8,1.7,2.3c0,1.5-0.7,2.3-1.7,2.3S108.1,84.7,108.1,83.2z M110.7,83.2
		c0-1.2-0.4-1.7-1-1.7c-0.6,0-1,0.6-1,1.7s0.4,1.8,1,1.8C110.3,85,110.7,84.4,110.7,83.2z"/>
</g>
<polygon class="st25" points="160,104.7 117.5,89.2 13.8,89.2 13.8,88.2 117.7,88.2 160.3,103.7 "/>
</svg>
